<svg xmlns="http://www.w3.org/2000/svg" xmlns:xlink="http://www.w3.org/1999/xlink" viewBox="0 0 109.71 109.71"><defs><clipPath id="clip-path" transform="translate(-3043.56 -1937.76)"><circle cx="3098.42" cy="1992.61" r="32" style="fill:none"/></clipPath><clipPath id="clip-path-2" transform="translate(-3043.56 -1937.76)"><rect x="17.28" y="13.18" width="4681.14" height="3350.86" style="fill:none"/></clipPath><clipPath id="clip-path-3" transform="translate(-3043.56 -1937.76)"><path d="M3096,2005.16l-9-10a1.67,1.67,0,0,1,0-2.18l1.95-2.19a1.29,1.29,0,0,1,2,0l6,6.76,12.94-14.47a1.28,1.28,0,0,1,2,0l1.95,2.18a1.68,1.68,0,0,1,0,2.19l-15.87,17.73A1.28,1.28,0,0,1,3096,2005.16Z" style="fill:none;clip-rule:evenodd"/></clipPath><clipPath id="clip-path-4" transform="translate(-3043.56 -1937.76)"><rect width="4710.43" height="3371.82" style="fill:none"/></clipPath></defs><title>Asset 1</title><g id="Layer_2" data-name="Layer 2"><g id="Layer_1-2" data-name="Layer 1"><g style="clip-path:url(#clip-path)"><g style="clip-path:url(#clip-path-2)"><rect width="109.71" height="109.71" style="fill:#bb9c5b"/></g></g><g style="clip-path:url(#clip-path-3)"><g style="clip-path:url(#clip-path-4)"><rect x="20.06" y="21.86" width="73.6" height="69" style="fill:#fff"/></g></g></g></g></svg>