<?xml version="1.0" encoding="utf-8"?>
<!-- Generator: Adobe Illustrator 23.0.2, SVG Export Plug-In . SVG Version: 6.00 Build 0)  -->
<svg version="1.1" id="Layer_1" xmlns="http://www.w3.org/2000/svg" xmlns:xlink="http://www.w3.org/1999/xlink" x="0px" y="0px"
	 viewBox="0 0 16 16" style="enable-background:new 0 0 16 16;" xml:space="preserve">
<style type="text/css">
	.st0{fill:#FFFFFF;}
</style>
<rect width="16" height="16"/>
<path class="st0" d="M2.45,7.13l0.96-0.59c0,0,0.25-0.28,0.41-0.26c0,0,0.41-0.93,0.99-0.73c0,0-0.02-0.28,0.61-0.55l0.84-0.48
	c0,0-0.57-0.3-0.57-0.78c0,0-0.49-0.44,0.09-0.34c0,0,0.66,0.07,1.03,0.44c0,0,0.68-0.35,1.03-0.3c0,0,0.49-0.21-0.25-1.03
	c0,0,0.02-0.5,0.63,0.12c0,0,0.51,0.8,0.42,0.32c0,0,0.08-1.01,0.44-0.27c0,0,0.11,1.06,0.8,1.36c0,0,0.44,0.23,0.32,0.67
	c0,0-0.09,0.25,0.34,0.43c0,0,0.99,0.67,0.97,1.13c0,0,0.21,0.25-0.25,0.34l-0.3,0.09c0,0-0.3,0.14-0.49-0.09
	c0,0-0.15-0.3-0.59-0.18c0,0-0.51,0.12-1.37-0.19c0,0-0.93-0.12-2.24,1.66c0,0-2.03,2.81-3.8,3.82v3.47h11.1v-4.55H9.18v0.9H6.71
	v-0.85l6.84-3.2V3.02l-2.39-2.23H4.74L2.45,3.02V7.13z"/>
</svg>
