<?xml version="1.0" encoding="utf-8"?>
<!-- Generator: Adobe Illustrator 23.0.2, SVG Export Plug-In . SVG Version: 6.00 Build 0)  -->
<svg version="1.1" id="Layer_1" xmlns="http://www.w3.org/2000/svg" xmlns:xlink="http://www.w3.org/1999/xlink" x="0px" y="0px"
	 viewBox="0 0 16 16" style="enable-background:new 0 0 16 16;" xml:space="preserve">
<path d="M2.5,7.1l1-0.6c0,0,0.3-0.3,0.4-0.3c0,0,0.4-0.9,1-0.7c0,0,0-0.3,0.6-0.6l0.8-0.5c0,0-0.6-0.3-0.6-0.8c0,0-0.5-0.4,0.1-0.3
	c0,0,0.7,0.1,1,0.4c0,0,0.7-0.3,1-0.3c0,0,0.5-0.2-0.3-1c0,0,0-0.5,0.6,0.1c0,0,0.5,0.8,0.4,0.3c0,0,0.1-1,0.4-0.3
	c0,0,0.1,1.1,0.8,1.4c0,0,0.4,0.2,0.3,0.7c0,0-0.1,0.3,0.3,0.4c0,0,1,0.7,1,1.1c0,0,0.2,0.3-0.3,0.3L11,6.7c0,0-0.3,0.1-0.5-0.1
	c0,0-0.1-0.3-0.6-0.2c0,0-0.5,0.1-1.4-0.2c0,0-0.9-0.1-2.2,1.7c0,0-2,2.8-3.8,3.8v3.5h11.1v-4.6H9.2v0.9H6.7v-0.9l6.8-3.2V3
	l-2.4-2.2H4.7L2.5,3V7.1z"/>
</svg>
