<?xml version="1.0" standalone="no"?>
<!DOCTYPE svg PUBLIC "-//W3C//DTD SVG 20010904//EN"
 "http://www.w3.org/TR/2001/REC-SVG-20010904/DTD/svg10.dtd">
<svg version="1.0" xmlns="http://www.w3.org/2000/svg"
 width="640.000000pt" height="640.000000pt" viewBox="0 0 640.000000 640.000000"
 preserveAspectRatio="xMidYMid meet">
<metadata>
Created by potrace 1.11, written by Peter Selinger 2001-2013
</metadata>
<g transform="translate(0.000000,640.000000) scale(0.100000,-0.100000)"
fill="#000000" stroke="none">
<path d="M1832 6372 c-13 -15 -92 -98 -175 -186 -194 -203 -219 -228 -417
-436 -91 -95 -202 -212 -247 -259 l-83 -86 0 -907 c0 -500 2 -908 5 -908 5 0
269 170 290 187 6 4 30 21 55 37 25 16 67 51 94 78 28 27 65 53 86 59 30 9 42
21 61 58 51 104 171 251 206 251 7 0 13 4 13 8 0 14 96 34 132 27 32 -6 34 -4
47 30 18 51 104 134 176 170 33 17 62 33 63 38 2 4 8 7 13 7 6 0 308 181 329
198 3 2 -2 7 -10 12 -20 11 -56 42 -106 91 -51 49 -101 140 -110 200 -4 28
-19 59 -40 85 -71 88 -54 126 50 112 160 -21 323 -85 409 -163 34 -31 41 -33
65 -23 15 7 32 15 37 19 52 36 273 106 326 103 28 -2 42 3 62 24 70 75 43 201
-81 369 -51 69 -55 96 -20 126 28 24 59 21 104 -9 63 -42 112 -94 169 -179 58
-87 112 -148 125 -140 5 3 8 31 8 63 -1 32 2 66 5 77 4 11 9 35 12 54 15 90
57 131 96 95 28 -26 67 -112 74 -166 9 -75 52 -211 91 -291 52 -107 111 -177
196 -232 89 -59 125 -96 151 -155 20 -43 25 -113 14 -170 -12 -61 25 -114 118
-170 66 -39 122 -86 225 -190 136 -135 163 -176 201 -312 19 -69 16 -102 -12
-125 -15 -11 -237 -84 -279 -90 -56 -9 -93 8 -150 67 -73 76 -112 89 -218 70
-122 -21 -241 -15 -407 24 -11 2 -59 18 -107 34 -48 17 -88 29 -90 27 -2 -1
-23 -5 -48 -8 -131 -16 -334 -138 -500 -299 -110 -107 -248 -275 -371 -453
-43 -63 -185 -262 -206 -290 -28 -37 -19 -26 -139 -180 -95 -122 -119 -151
-212 -264 -63 -76 -164 -192 -227 -261 -68 -74 -344 -350 -396 -395 -79 -70
-203 -167 -288 -226 l-91 -63 0 -768 0 -768 2294 0 2294 0 1 1010 0 1010 -904
0 -905 0 1 -182 c0 -101 0 -191 0 -200 -1 -17 -32 -18 -510 -18 l-509 0 1 185
c0 122 4 188 11 194 9 7 1766 893 2076 1047 113 56 141 70 185 92 22 11 47 23
55 26 8 4 123 62 255 129 l240 122 2 995 2 995 -497 497 -497 498 -1325 -1
-1325 0 -23 -27z"/>
</g>
</svg>
